<svg xmlns="http://www.w3.org/2000/svg" viewBox="0 0 32 32">
  <rect width="32" height="32" rx="6" fill="#0891b2"/>
  <g transform="translate(4,4) scale(0.75)">
    <path fill="white" d="M16 0C16 0 10.3 0 8 2.3C5.7 4.6 5.7 6 5.7 8C5.7 8 0 8 0 16C0 24 5.7 24 5.7 24C5.7 26 5.7 27.4 8 29.7C10.3 32 16 32 16 32C16 32 21.7 32 24 29.7C26.3 27.4 26.3 26 26.3 24C26.3 24 32 24 32 16C32 8 26.3 8 26.3 8C26.3 6 26.3 4.6 24 2.3C21.7 0 16 0 16 0Z"/>
    <path fill="#0891b2" d="M16 5C16 5 12.2 5 10.6 6.6C9 8.2 9 9.2 9 10.5C9 10.5 5 10.5 5 16C5 21.5 9 21.5 9 21.5C9 22.8 9 23.8 10.6 25.4C12.2 27 16 27 16 27C16 27 19.8 27 21.4 25.4C23 23.8 23 22.8 23 21.5C23 21.5 27 21.5 27 16C27 10.5 23 10.5 23 10.5C23 9.2 23 8.2 21.4 6.6C19.8 5 16 5 16 5Z"/>
  </g>
</svg>
